<svg xmlns="http://www.w3.org/2000/svg" viewBox="0 0 24 24"><path d="M20.44 11.36a8.15 8.15 0 0 1-.22 2 4 4 0 0 0-.85-.43 4.78 4.78 0 0 0-1.86-.36 5 5 0 0 0-3.46 1.38 3.4 3.4 0 0 0 0-.45 2.11 2.11 0 0 0-1.23-1.94l-2.39-1.15a1.36 1.36 0 0 1-.74-1.21 1.69 1.69 0 0 1 1.68-1.7 1.71 1.71 0 0 1 1.71 1.72.47.47 0 0 0 .47.47.48.48 0 0 0 .47-.48 2.68 2.68 0 0 0-2.18-2.61v-.7a.48.48 0 0 0-.4-.55.5.5 0 0 0-.55.41v.82a2.57 2.57 0 0 0-2.17 2.59A2.33 2.33 0 0 0 10 11.24l2.39 1.15a1.19 1.19 0 0 1 .68 1.09 1.71 1.71 0 0 1-3.33.6 2 2 0 0 1 0-.54.48.48 0 1 0-1 0A2.65 2.65 0 0 0 11 16.15v.67a.48.48 0 1 0 1 0v-.67a2.22 2.22 0 0 0 .37-.09 2.27 2.27 0 0 0 .52-.25 5 5 0 0 0-.33 1.78 5 5 0 0 0 .31 1.73 5.22 5.22 0 0 0 .41.86 8.42 8.42 0 0 1-1.74.18 9 9 0 1 1 9-9z"/><path d="M21.55 17.41a3.57 3.57 0 0 0-.1-.74v-.13a3.85 3.85 0 0 0-.29-.76l-.06-.11a4 4 0 0 0-1.14-1.32 3.64 3.64 0 0 0-.81-.47 2.5 2.5 0 0 0-.38-.15 4 4 0 0 0-1.22-.19h-.41a4 4 0 0 0-3.64 4 4 4 0 0 0 .74 2.33c.09.12.18.24.28.35s0 .05.07.08a2.42 2.42 0 0 0 .33.31 2.63 2.63 0 0 0 .37.29 2.86 2.86 0 0 0 .42.24 3.3 3.3 0 0 0 .43.19 3.78 3.78 0 0 0 .93.22 3.44 3.44 0 0 0 .46 0h.37c.16 0 .3 0 .45-.06l.36-.1.31-.11h.07a3.25 3.25 0 0 0 .63-.35 3.27 3.27 0 0 0 .36-.25l.29-.26a3.84 3.84 0 0 0 1.15-2.36v-.45c0-.15.03-.12.03-.2zm-1.93 2.34a.5.5 0 0 1-.35.14.52.52 0 0 1-.35-.14l-1.45-1.45L16 19.75a.52.52 0 0 1-.7 0 .45.45 0 0 1-.11-.19.5.5 0 0 1 .11-.52l1.41-1.45-.1-.1-1.35-1.35a.51.51 0 0 1 0-.71.5.5 0 0 1 .35-.15.46.46 0 0 1 .33.13l1.46 1.46 1.45-1.46a.47.47 0 0 1 .59-.08l.11.08a.5.5 0 0 1 0 .71l-1.45 1.45L19.62 19a.5.5 0 0 1 0 .75z"/></svg>