<svg xmlns="http://www.w3.org/2000/svg" viewBox="0 0 24 24"><path d="M21.47 18a1.79 1.79 0 0 0-.93-1.12c-1.25-.64-3.37-.15-4.52.2a1.74 1.74 0 0 0-1.5-1.36 16.42 16.42 0 0 1-3.35-1.16 6.56 6.56 0 0 0-3.89-.21.52.52 0 0 0-.28-.25L3.15 13a.51.51 0 0 0-.64.48v6.16a.5.5 0 0 0 .5.5h2.82a.5.5 0 0 0 .49-.4l.08-.37 4.87 1.84a4.75 4.75 0 0 0 1.74.32 4.87 4.87 0 0 0 1.87-.37l6.3-2.61a.5.5 0 0 0 .29-.55zm-16 1.19H3.51v-5l2.77.78zm9.08 1.09a3.88 3.88 0 0 1-2.88.05l-5-1.91.62-3a5.71 5.71 0 0 1 3.54.08 16.66 16.66 0 0 0 3.58 1.23c.55.11.75.44.71.72s-.19.4-.57.36a23.29 23.29 0 0 1-4.2-.85.5.5 0 1 0-.33.94 24 24 0 0 0 4.43.91h.2a1.4 1.4 0 0 0 1.15-.57c1-.34 3.31-1 4.35-.45a.69.69 0 0 1 .19.12zm.65-5.84a.47.47 0 0 0 .35.14.5.5 0 0 0 .36-.14l4.35-4.09.13-.13a3.3 3.3 0 0 0-.14-4.73 3.43 3.43 0 0 0-3.26-.82 2.91 2.91 0 0 0-1.44 1 2.83 2.83 0 0 0-1.44-1 3.44 3.44 0 0 0-3.27.83 3.3 3.3 0 0 0-.13 4.72zm-3.71-8.22a2.56 2.56 0 0 1 1.67-.69 2 2 0 0 1 .6.09A1.79 1.79 0 0 1 15 6.88a.52.52 0 0 0 .5.38.54.54 0 0 0 .5-.38 1.78 1.78 0 0 1 1.23-1.26 2.35 2.35 0 0 1 2.26.59 2.28 2.28 0 0 1 .73 1.6 2.25 2.25 0 0 1-.64 1.64L15.5 13.3l-4-3.76-.1-.09a2.29 2.29 0 0 1-.64-1.64 2.27 2.27 0 0 1 .73-1.59z"/></svg>