<svg xmlns="http://www.w3.org/2000/svg" viewBox="0 0 24 24"><path d="M19.25 15.2a3 3 0 1 0-3.5 2.95v1.05h-1a.5.5 0 0 0-.5.5.5.5 0 0 0 .5.5h1v1a.5.5 0 1 0 1 0v-1h1a.5.5 0 0 0 .5-.5.5.5 0 0 0-.5-.5h-1v-1.05a3 3 0 0 0 2.5-2.95zm-3 2a2 2 0 1 1 2-2 2 2 0 0 1-2 2zm-4 3.09H8.74a1.1 1.1 0 0 1-.74-.36c-1-1.14-2.12-4.75-2.21-11.5h9.17v1.75a.5.5 0 0 0 .48.52.49.49 0 0 0 .52-.48V7.93a.5.5 0 0 0-.14-.36.51.51 0 0 0-.36-.14h-1.7l-.22-1.55a.49.49 0 0 0-.49-.43h-.36V2.8a.5.5 0 0 0-.5-.5h-3.7a.5.5 0 0 0-.5.5v2.65h-.35a.51.51 0 0 0-.5.43l-.22 1.55H5.25a.5.5 0 0 0-.35.14.51.51 0 0 0-.15.36c0 6.24 1 11 2.47 12.66a2 2 0 0 0 1.52.7h3.51a.5.5 0 0 0 .5-.5.5.5 0 0 0-.5-.5zM9 3.3h2.7v2.15H9zm-.93 3.15h4.55l.13 1H7.93z"/></svg>