<svg xmlns="http://www.w3.org/2000/svg" viewBox="0 0 24 24"><path d="M12.08 20.5a.5.5 0 0 1-.5-.5v-2l-1.4 1.34a.49.49 0 0 1-.7 0 .5.5 0 0 1 0-.71l2.09-2V12.9L8.29 15l-.42 2.81a.5.5 0 1 1-1-.15l.3-2-1.75 1.04a.5.5 0 0 1-.68-.18.48.48 0 0 1 .17-.68l1.85-1.11-2-.9a.5.5 0 0 1-.24-.67.49.49 0 0 1 .66-.24l2.61 1.18 3.35-2.1-3.35-2.1-2.58 1.18a.49.49 0 0 1-.66-.24.5.5 0 0 1 .24-.67l2-.9-1.88-1.11a.48.48 0 0 1-.17-.68.5.5 0 0 1 .68-.18l1.76 1.06-.3-2a.51.51 0 0 1 .42-.56.51.51 0 0 1 .57.42L8.29 9l3.29 2.07V7.41l-2.09-2a.5.5 0 0 1 0-.71.49.49 0 0 1 .7 0L11.58 6V4a.5.5 0 0 1 .5-.5.5.5 0 0 1 .5.5v2L14 4.7a.5.5 0 1 1 .69.73l-2.09 2v3.67L15.88 9l.42-2.81a.51.51 0 0 1 .57-.42.51.51 0 0 1 .42.57l-.3 2 1.75-1.04a.5.5 0 0 1 .52.86l-1.85 1.11 2 .9a.5.5 0 0 1 .25.67.49.49 0 0 1-.66.24L16.38 9.9 13 12l3.36 2.1L19 12.92a.49.49 0 0 1 .66.24.5.5 0 0 1-.25.67l-2 .9 1.85 1.11a.5.5 0 0 1-.52.86L17 15.64l.3 2a.5.5 0 1 1-1 .15L15.88 15l-3.3-2.07v3.69l2.09 2a.5.5 0 0 1-.69.73L12.58 18v2a.5.5 0 0 1-.5.5z"/></svg>