<svg xmlns="http://www.w3.org/2000/svg" viewBox="0 0 24 24"><path d="M12.39 4.46a.6.6 0 0 0-.78-.92s-3.87 3.42-.1 8.8c3.13 4.47.22 7.1.1 7.21A.6.6 0 0 0 12 20.6a.62.62 0 0 0 .39-.14s3.87-3.42.1-8.8c-3.13-4.47-.22-7.1-.1-7.2zM17.62 11.65c-1.91-2.65-.29-4.16-.1-4.32a.6.6 0 0 0 .07-.85.59.59 0 0 0-.84-.07s-2.71 2.32-.1 5.94c1.9 2.65.29 4.16.1 4.33a.59.59 0 0 0-.08.84.6.6 0 0 0 .46.21.57.57 0 0 0 .39-.14s2.71-2.32.1-5.94zM7.25 7.33a.61.61 0 0 0 .08-.85.6.6 0 0 0-.85-.07s-2.71 2.32-.1 5.94c1.91 2.65.29 4.16.1 4.33a.59.59 0 0 0-.07.84.57.57 0 0 0 .46.21.56.56 0 0 0 .38-.14s2.71-2.32.1-5.94c-1.9-2.65-.29-4.16-.1-4.32z"/></svg>