<svg xmlns="http://www.w3.org/2000/svg" viewBox="0 0 24 24"><path d="M19.63 16V8a2.07 2.07 0 0 0-2.06-2H6.41A1.94 1.94 0 0 0 5 6.54 2 2 0 0 0 4.37 8v8a2.08 2.08 0 0 0 2.07 2.08h11.13A2.08 2.08 0 0 0 19.63 16zm-1 0a1.06 1.06 0 0 1-.32.79 1.1 1.1 0 0 1-.77.32H6.42A1.09 1.09 0 0 1 5.33 16v-5.86h13.34zm0-6.8H5.32V8a1.08 1.08 0 0 1 1.09-1.1h11.17a1.14 1.14 0 0 1 .78.32 1.11 1.11 0 0 1 .31.79z"/><path d="M7 14h4.17a.49.49 0 0 0 0-1H7a.49.49 0 0 0 0 1zM7 12.1h10a.49.49 0 0 0 0-1H7a.49.49 0 0 0 0 1zM3.52 17.09H2.46v2.12a1.07 1.07 0 0 0 1.06 1.06h2.12v-1.06H3.52zM20.48 19.21h-2.12v1.06h2.12a1.07 1.07 0 0 0 1.06-1.06v-2.12h-1.06zM3.52 6.91V4.79h2.12V3.73H3.52a1.07 1.07 0 0 0-1.06 1.06v2.12zM20.48 3.73h-2.12v1.06h2.12v2.12h1.06V4.79a1.07 1.07 0 0 0-1.06-1.06z"/></svg>