<svg xmlns="http://www.w3.org/2000/svg" viewBox="0 0 24 24"><path d="M9 13.5a1.5 1.5 0 0 0-1-1.41V6a1 1 0 0 0-.55-.9 1.06 1.06 0 0 0-1.1 0l-1.06.64A2.63 2.63 0 0 0 4 8v4.1a1.5 1.5 0 0 0-1 1.4v5A2.5 2.5 0 0 0 5.5 21h1A2.5 2.5 0 0 0 9 18.5zM5 8a1.63 1.63 0 0 1 .8-1.37c.33-.19.7-.42 1.08-.66L7 6v6H5zm3 10.5A1.5 1.5 0 0 1 6.5 20h-1A1.5 1.5 0 0 1 4 18.5v-5a.5.5 0 0 1 .5-.5h3a.5.5 0 0 1 .5.5z"/><path d="M19.5 16h-.26A8 8 0 0 0 8.35 4.5a2 2 0 0 1 .55.84A6.87 6.87 0 0 1 13 4a7 7 0 0 1 4.89 12l-.14.13A7 7 0 0 1 13 18a7 7 0 0 1-3-.69v1.1a8 8 0 0 0 3 .59 8 8 0 0 0 5.27-2h1.23a.5.5 0 0 1 .5.5v.5a2 2 0 0 1-2 2H9.65a3.09 3.09 0 0 1-.71 1H18a3 3 0 0 0 3-3v-.5a1.5 1.5 0 0 0-1.5-1.5z"/><path d="M13 15.5a4.42 4.42 0 0 1-3-1.16v1.26a5.41 5.41 0 0 0 3 .9 5.5 5.5 0 1 0-4-9.27v1.71a4.5 4.5 0 1 1 4 6.56z"/></svg>