<svg xmlns="http://www.w3.org/2000/svg" viewBox="0 0 24 24"><path d="M20.06 15.42l-.11-.2a1.35 1.35 0 0 0-1.79-.37l-2 1a1.24 1.24 0 0 0-.25-.39 1.31 1.31 0 0 0-.89-.42l-2.9-.38h-.2c-.08 0-2.09-.08-2.88 0a28.29 28.29 0 0 0-4.43 1.8l-.45.21L5.92 20l.4-.23c.92-.51 2-1.08 2.15-1.14a.94.94 0 0 1 .39.13l2.6 1.24h.09a1.74 1.74 0 0 0 .39.05 1.86 1.86 0 0 0 .34 0l3.52-.69 3.4-2.15a1.46 1.46 0 0 0 .86-1.79zm-1.28.94l-3.25 2.07-3.45.68a.75.75 0 0 1-.26 0l-2.59-1.26a1.57 1.57 0 0 0-1-.18 16.59 16.59 0 0 0-2 1l-.86-1.56a25.71 25.71 0 0 1 3.73-1.5c.72-.07 2.73 0 2.77 0H12l2.9.39a.42.42 0 0 1 .3.13.4.4 0 0 1 .09.22.61.61 0 0 1-.68.29l-3.22-.43a.47.47 0 0 0-.12.94l3.19.42A1.54 1.54 0 0 0 16 17l2.65-1.34a.43.43 0 0 1 .56.09.57.57 0 0 1-.43.61zM8.48 14.25h7.14a1 1 0 0 0 .72-.33 1 1 0 0 0 .26-.74l-.55-6.23a.47.47 0 0 0-.46-.43h-1.31v-.27a2.25 2.25 0 0 0-4.49 0v.26H8.47a.47.47 0 0 0-.47.43l-.55 6.23v.11a1 1 0 0 0 1.03.97zm2.24-8a1.32 1.32 0 0 1 2.63 0v.26h-2.63zM8.9 7.45h.89v.8a.47.47 0 0 0 .46.48.48.48 0 0 0 .47-.48v-.8h2.63v.81a.46.46 0 0 0 .46.47.47.47 0 0 0 .47-.47v-.81h.88l.5 5.82H8.5c-.06 0-.11 0-.11-.05z"/></svg>