<svg xmlns="http://www.w3.org/2000/svg" viewBox="0 0 24 24"><path d="M8.043 16.596L4.397 12.95a1.36 1.36 0 0 1 0-1.92l6.482-6.484c.23-.233.54-.374.867-.397l2.164-.146c.395-.026.78.122 1.054.405l1.583 1.576.006-.012 1.62.754c.364.178.632.507.729.9l.51 2.058c.076.31.04.637-.104.924l-4.053 8.282a1.353 1.353 0 0 1-1.215.762h-.008a1.273 1.273 0 0 1-.6-.146l-4.627-2.27a1.648 1.648 0 0 1-.437-.394 1.382 1.382 0 0 1-.325-.246zm8.996-9.432l-.187 2.106a1.388 1.388 0 0 1-.397.81l-6.483 6.485a1.412 1.412 0 0 1-.264.218l4.08 1.994a.54.54 0 0 0 .422 0 .535.535 0 0 0 .292-.243v-.041l4.052-8.274a.598.598 0 0 0 .04-.373l-.486-2.026a.517.517 0 0 0-.292-.356l-.773-.36-.004.06zM11.47 5.089l-6.483 6.484a.552.552 0 0 0 0 .81l3.648 3.646a.55.55 0 0 0 .81 0l6.483-6.482a.511.511 0 0 0 .163-.341l.186-2.107a.545.545 0 0 0-.154-.438l-1.71-1.718a.536.536 0 0 0-.43-.162l-2.156.146a.553.553 0 0 0-.357.162zm2.65 2.852a1.102 1.102 0 1 1-.028-2.203 1.102 1.102 0 0 1 .028 2.203zm0-1.386a.293.293 0 1 0-.096.578.293.293 0 0 0 .096-.578z"/></svg>