<svg xmlns="http://www.w3.org/2000/svg" viewBox="0 0 24 24"><path d="M12 15.13a3 3 0 1 1 3-3 3 3 0 0 1-3 3zm0-5a2 2 0 1 0 2 2 2 2 0 0 0-2-2z"/><path d="M12 5.22a2.74 2.74 0 0 1 2.67 2.14l.2.85.87-.08H16a2.74 2.74 0 0 1 1.33 5.14l-.82.45.4.84a2.7 2.7 0 0 1 .27 1.17 2.76 2.76 0 0 1-2.75 2.75 2.67 2.67 0 0 1-1.78-.68l-.65-.59-.65.56a2.68 2.68 0 0 1-1.77.67A2.75 2.75 0 0 1 6.8 15.7a2.66 2.66 0 0 1 .27-1.16l.39-.85-.81-.45A2.74 2.74 0 0 1 8 8.1h.26l.87.08.2-.86A2.72 2.72 0 0 1 12 5.22m0-1a3.75 3.75 0 0 0-3.67 2.91h-.35a3.74 3.74 0 0 0-1.82 7 3.67 3.67 0 0 0-.36 1.57 3.74 3.74 0 0 0 3.75 3.74 3.69 3.69 0 0 0 2.45-.91 3.74 3.74 0 0 0 6.19-2.83 3.82 3.82 0 0 0-.36-1.59A3.74 3.74 0 0 0 16 7.1h-.35A3.76 3.76 0 0 0 12 4.22z"/></svg>