<svg xmlns="http://www.w3.org/2000/svg" viewBox="0 0 24 24"><path d="M12 18.25l-6.06-.05V9.61h12.23v2.89a.5.5 0 0 0 1 0V9.61h.27a1.06 1.06 0 0 0 1-1v-2.9a1.09 1.09 0 0 0-.29-.71 1 1 0 0 0-.71-.25h-15a1.09 1.09 0 0 0-.71.34 1 1 0 0 0-.25.71v2.85a1 1 0 0 0 .34.7 1 1 0 0 0 .66.26h.43v8.68a1.09 1.09 0 0 0 .34.71 1 1 0 0 0 .66.25H12a.5.5 0 0 0 .5-.5.5.5 0 0 0-.5-.5zM4.51 8.56V5.75h14.93v2.8a.06.06 0 0 1 0 .06zm17 7.68a.76.76 0 0 0-.14-.57.78.78 0 0 0-.51-.3l-2.19-.3-1-1.91a.8.8 0 0 0-.42-.41.78.78 0 0 0-.58 0 .7.7 0 0 0-.37.37l-1 2-2.19.31a.73.73 0 0 0-.46.23.75.75 0 0 0-.2.55.77.77 0 0 0 .24.53l1.57 1.52-.37 2.15a.79.79 0 0 0 .08.5.77.77 0 0 0 .68.4.72.72 0 0 0 .35-.08l1.95-1 1.94 1a.8.8 0 0 0 .5.08.74.74 0 0 0 .5-.32.7.7 0 0 0 .12-.56l-.37-2.18 1.56-1.53a.74.74 0 0 0 .29-.48zM19 17.55a.66.66 0 0 0-.26.72l.26 1.84-1.67-.86a.88.88 0 0 0-.32-.07.94.94 0 0 0-.36.08l-1.65.85.31-1.83a.85.85 0 0 0-.22-.66l-1.33-1.29 1.83-.25a.79.79 0 0 0 .59-.41L17 14l.8 1.59a.71.71 0 0 0 .6.43l1.83.26z"/></svg>