<svg xmlns="http://www.w3.org/2000/svg" viewBox="0 0 24 24"><path d="M12.13 10.78L9.74 9.63A1.34 1.34 0 0 1 9 8.42a1.69 1.69 0 0 1 1.69-1.7 1.72 1.72 0 0 1 1.71 1.72.47.47 0 0 0 .48.47.48.48 0 0 0 .47-.48 2.68 2.68 0 0 0-2.18-2.61v-.67a.48.48 0 1 0-.95 0v.68A2.56 2.56 0 0 0 8 8.42a2.32 2.32 0 0 0 1.3 2.07l2.39 1.15a1.21 1.21 0 0 1 .68 1.09 1.71 1.71 0 0 1-3.33.6 1.68 1.68 0 0 1-.04-.54.49.49 0 0 0-.48-.48.48.48 0 0 0-.47.48 2.64 2.64 0 0 0 2.18 2.61v.67a.48.48 0 0 0 .47.48.49.49 0 0 0 .48-.48v-.67a2.49 2.49 0 0 0 .37-.09 2.69 2.69 0 0 0 1.81-2.59 2.14 2.14 0 0 0-1.23-1.94z"/><path d="M19.2 13.61a8.8 8.8 0 0 0 .52-3 9 9 0 1 0-9 9 8.72 8.72 0 0 0 2.76-.44 4.06 4.06 0 1 0 5.75-5.59zm-6.52 3.23a4 4 0 0 0 .32 1.51 7.81 7.81 0 0 1-2.28.34 8.11 8.11 0 1 1 7.67-5.56 3.94 3.94 0 0 0-1.61-.34 4.06 4.06 0 0 0-4.1 4.05zm6.22 1.45a.5.5 0 0 1-.35.85.52.52 0 0 1-.35-.14l-1.45-1.45L15.29 19a.51.51 0 0 1-.7 0 .34.34 0 0 1-.11-.19.48.48 0 0 1 .11-.52L16 16.84l-.1-.1-1.35-1.35a.5.5 0 0 1 0-.71.48.48 0 0 1 .7 0l1.46 1.46 1.45-1.46a.47.47 0 0 1 .59-.08l.11.08a.5.5 0 0 1 0 .71l-1.45 1.45z"/></svg>