<svg xmlns="http://www.w3.org/2000/svg" viewBox="0 0 24 24"><path d="M12 17.52a11.52 11.52 0 0 1-9.93-6.2.48.48 0 0 1 0-.42.54.54 0 0 1 .31-.3 19.71 19.71 0 0 0 4.33-2.91 3.51 3.51 0 0 1 4.51.12l.65.57a.19.19 0 0 0 .26 0l.65-.57a3.51 3.51 0 0 1 4.51-.12 19.71 19.71 0 0 0 4.37 2.91.54.54 0 0 1 .31.3.48.48 0 0 1 0 .42 11.52 11.52 0 0 1-9.97 6.2zm-8.77-6.2a10.45 10.45 0 0 0 8.77 5.2 10.45 10.45 0 0 0 8.77-5.2 25.08 25.08 0 0 1-4.1-2.85 2.52 2.52 0 0 0-3.23.08l-.64.58a1.22 1.22 0 0 1-1.6 0l-.64-.58a2.52 2.52 0 0 0-3.23-.08 25.08 25.08 0 0 1-4.1 2.85zM7 8.08zM12 13a3.13 3.13 0 0 1-.89-.16 2.16 2.16 0 0 0-.61-.13 7.76 7.76 0 0 1-3.22-.55.5.5 0 0 1 .44-.9 6.87 6.87 0 0 0 2.78.45 3.13 3.13 0 0 1 .89.17 2 2 0 0 0 1.22 0 3.13 3.13 0 0 1 .89-.17 6.87 6.87 0 0 0 2.78-.45.5.5 0 1 1 .44.9 7.76 7.76 0 0 1-3.22.55 2.16 2.16 0 0 0-.61.13A3.13 3.13 0 0 1 12 13z"/></svg>