<svg xmlns="http://www.w3.org/2000/svg" viewBox="0 0 24 24"><path d="M18.28 13.5l-.23.17a5.47 5.47 0 0 0-3.47-2 5.73 5.73 0 0 0-4.42 1.27 11.94 11.94 0 0 0-1.58 1.6 5.61 5.61 0 0 1-2.9 2.18L4.12 17l1.46.64a18.14 18.14 0 0 0 7.05 1.83 6.41 6.41 0 0 0 3.25-.78 5.44 5.44 0 0 0 2.55-4.06l.46-.36a.5.5 0 1 0-.61-.79zm-2.91 4.34c-1.77 1-4.61.81-8.25-.62a9.26 9.26 0 0 0 2.21-2 11.32 11.32 0 0 1 1.45-1.48 4.73 4.73 0 0 1 3.66-1.06 4.43 4.43 0 0 1 2.79 1.6 3.23 3.23 0 0 1-2 .19 5.94 5.94 0 0 0-2.64.14.51.51 0 0 0-.33.63.51.51 0 0 0 .63.33 4.74 4.74 0 0 1 2.23-.1 4.66 4.66 0 0 0 2.18-.11 4.15 4.15 0 0 1-1.93 2.48zM9.58 10a3.1 3.1 0 0 0 .95-2.64l.47-.5a.5.5 0 1 0-.78-.62l-.33.41c-3-1.28-4.11.35-5.19 1.89a12.34 12.34 0 0 1-1.32 1.68l-.59.59.79.25a8 8 0 0 0 2.35.37A5 5 0 0 0 9.58 10zm-4.06-.89c1.09-1.57 1.75-2.54 4-1.49a2.15 2.15 0 0 1-.69 1.71 4.32 4.32 0 0 1-4.21 1c.38-.43.64-.84.9-1.22zM20.49 9.72A14.5 14.5 0 0 1 18.27 7c-1.07-1.59-1.93-2.85-4.58-2.07l-.15-.21a.5.5 0 0 0-.82.57l.21.3a3.45 3.45 0 0 0 .69 3.34 5.84 5.84 0 0 0 4.57 1.88 9.83 9.83 0 0 0 2.07-.24l.92-.21zm-6.1-1.42a2.45 2.45 0 0 1-.52-2.37c2-.64 2.49.05 3.57 1.64a17.22 17.22 0 0 0 1.68 2.19 5.16 5.16 0 0 1-4.73-1.46z"/></svg>