<svg xmlns="http://www.w3.org/2000/svg" viewBox="0 0 24 24"><path d="M18.7 1.25a1.33 1.33 0 0 0-.83.29l-1.2 1-1.51-1.24a1.32 1.32 0 0 0-.83-.3 1.29 1.29 0 0 0-.82.3L12 2.54 10.49 1.3a1.29 1.29 0 0 0-.82-.3 1.32 1.32 0 0 0-.83.3L7.33 2.54l-1.2-1a1.33 1.33 0 0 0-.83-.29 1.28 1.28 0 0 0-.89.35 1.3 1.3 0 0 0-.41.95v18.9a1.3 1.3 0 0 0 1.3 1.3 1.33 1.33 0 0 0 .83-.29l1.2-1 1.51 1.24a1.32 1.32 0 0 0 .83.3 1.29 1.29 0 0 0 .82-.3L12 21.46l1.51 1.24a1.29 1.29 0 0 0 .82.3 1.32 1.32 0 0 0 .83-.3l1.51-1.24 1.2 1a1.33 1.33 0 0 0 .83.29 1.3 1.3 0 0 0 1.3-1.3V2.55a1.3 1.3 0 0 0-1.3-1.3zm.3 20.2a.3.3 0 0 1-.3.3.28.28 0 0 1-.19-.07l-1.65-1.36a.35.35 0 0 0-.19-.06.31.31 0 0 0-.19.06l-2 1.61a.26.26 0 0 1-.19.07.3.3 0 0 1-.19-.07l-2-1.61a.33.33 0 0 0-.38 0l-2 1.61a.3.3 0 0 1-.19.07.26.26 0 0 1-.19-.07l-2-1.61a.31.31 0 0 0-.19-.06.35.35 0 0 0-.19.06l-1.47 1.36a.28.28 0 0 1-.19.07.3.3 0 0 1-.3-.3V2.55a.3.3 0 0 1 .3-.3.28.28 0 0 1 .19.07l1.65 1.36a.35.35 0 0 0 .19.06.31.31 0 0 0 .19-.06l2-1.61A.26.26 0 0 1 9.67 2a.3.3 0 0 1 .19.07l2 1.61a.33.33 0 0 0 .38 0l2-1.61a.3.3 0 0 1 .09-.07.26.26 0 0 1 .19.07l2 1.61a.31.31 0 0 0 .19.06.35.35 0 0 0 .19-.06l1.65-1.36a.28.28 0 0 1 .19-.07.3.3 0 0 1 .3.3z"/><path d="M16 7.49H8a.51.51 0 0 0 0 1h8a.51.51 0 1 0 0-1zM16 15.49H8a.51.51 0 0 0 0 1h8a.51.51 0 0 0 0-1zM16 11.49H8a.51.51 0 0 0 0 1h8a.51.51 0 1 0 0-1z"/></svg>