<svg xmlns="http://www.w3.org/2000/svg" viewBox="0 0 24 24"><path d="M19.41 13.52a3.87 3.87 0 0 0-7.1-1.76 2.74 2.74 0 0 0-1-.2 2.71 2.71 0 0 0-2.71 2.59 2.71 2.71 0 0 0 .76 5.14h8.56a3.1 3.1 0 0 0 1.52-5.81zm-1.52 4.81H9.48A1.71 1.71 0 0 1 9 15.06l.55-.26v-.6a1.71 1.71 0 0 1 1.71-1.64 1.64 1.64 0 0 1 .65.13l.76.31.45-.69a2.87 2.87 0 0 1 5.27 1.31l.05.52.46.25a2.1 2.1 0 0 1-1 3.94zM9.09 11.31a2.22 2.22 0 1 0-2.22-2.22 2.21 2.21 0 0 0 2.22 2.22zm0-3.44a1.22 1.22 0 1 1-1.22 1.22 1.22 1.22 0 0 1 1.22-1.22zM6.54 9.09a.5.5 0 0 0-.5-.5H4.37a.5.5 0 0 0 0 1H6a.5.5 0 0 0 .54-.5zM6.52 7.22a.48.48 0 0 0 .7 0 .5.5 0 0 0 0-.71L6.11 5.4a.5.5 0 0 0-.7 0 .5.5 0 0 0 0 .71z"/><path d="M9.09 6.53a.5.5 0 0 0 .5-.5V4.37a.5.5 0 0 0-.5-.5.5.5 0 0 0-.5.5V6a.5.5 0 0 0 .5.53zM11.31 7.37a.51.51 0 0 0 .36-.15l1.11-1.11a.5.5 0 1 0-.71-.71L11 6.51a.51.51 0 0 0 0 .71.5.5 0 0 0 .31.15zM11.65 9.09a.5.5 0 0 0 .5.5h1.66a.5.5 0 0 0 0-1h-1.66a.5.5 0 0 0-.5.5zM7.22 11a.48.48 0 0 0-.7 0l-1.11 1.07a.5.5 0 0 0 .35.85.52.52 0 0 0 .35-.14l1.11-1.11a.5.5 0 0 0 0-.67z"/></svg>