<svg xmlns="http://www.w3.org/2000/svg" viewBox="0 0 24 24"><path d="M11.78 18.35v1.15a.5.5 0 0 1-.5.5H7a.5.5 0 0 1-.5-.5v-7.86A9.32 9.32 0 0 1 7.14 8a5.8 5.8 0 0 0 .25-1.71h3.43A5 5 0 0 0 11 8a1.6 1.6 0 0 1 .1.23l.92-.39-.02-.2a4.39 4.39 0 0 1-.08-1.83.48.48 0 0 0-.12-.4.46.46 0 0 0-.27-.15V4h.09a.5.5 0 0 0 .5-.5.5.5 0 0 0-.5-.5H5.5a.5.5 0 0 0-.5.5.5.5 0 0 0 .5.5h1.27v1.26a.48.48 0 0 0-.39.55 4.47 4.47 0 0 1-.18 1.86 10.32 10.32 0 0 0-.71 4v7.83A1.5 1.5 0 0 0 7 21h4.29a1.5 1.5 0 0 0 1.5-1.5v-1.15zM10.5 4v1.24H7.77V4z"/><path d="M18.94 13.32a.51.51 0 0 0-.58.41A3.63 3.63 0 0 1 15 16.84a3.53 3.53 0 0 1-3-2l.4.19a.5.5 0 1 0 .43-.91l-1.42-.68a.55.55 0 0 0-.4 0 .51.51 0 0 0-.28.28L10 15.31a.49.49 0 0 0 .27.65.43.43 0 0 0 .19 0 .49.49 0 0 0 .46-.31l.13-.32A4.52 4.52 0 0 0 15 17.84a4.65 4.65 0 0 0 4.36-3.94.51.51 0 0 0-.42-.58zM19.52 9.45a.5.5 0 0 0-.64.3l-.19.5A4.35 4.35 0 0 0 15 8a4.65 4.65 0 0 0-4.3 3.58.49.49 0 0 0 .35.61.3.3 0 0 0 .13 0 .5.5 0 0 0 .48-.37A3.68 3.68 0 0 1 15 9a3.33 3.33 0 0 1 2.65 1.42l-.11-.05a.51.51 0 0 0-.68.22.5.5 0 0 0 .23.67l1.47.74a.59.59 0 0 0 .23.05h.18a.53.53 0 0 0 .29-.3l.59-1.63a.5.5 0 0 0-.33-.67z"/></svg>