<svg xmlns="http://www.w3.org/2000/svg" viewBox="0 0 24 24"><path d="M12 8a4 4 0 1 0 4 4 4 4 0 0 0-4-4zm0 7a3 3 0 1 1 3-3 3 3 0 0 1-3 3zM7 12a.5.5 0 0 0-.5-.5h-3a.5.5 0 0 0 0 1h3A.5.5 0 0 0 7 12zM7.65 8.35a.48.48 0 0 0 .7 0 .48.48 0 0 0 0-.7l-2-2a.49.49 0 0 0-.7.7zM12 7a.5.5 0 0 0 .5-.5v-3a.5.5 0 0 0-1 0v3a.5.5 0 0 0 .5.5zM16 8.5a.47.47 0 0 0 .35-.15l2-2a.49.49 0 1 0-.7-.7l-2 2a.48.48 0 0 0 0 .7.47.47 0 0 0 .35.15zM20.5 11.5h-3a.5.5 0 0 0 0 1h3a.5.5 0 0 0 0-1zM16.35 15.65a.49.49 0 1 0-.7.7l2 2a.48.48 0 0 0 .7 0 .48.48 0 0 0 0-.7zM12 17a.5.5 0 0 0-.5.5v3a.5.5 0 0 0 1 0v-3a.5.5 0 0 0-.5-.5zM7.65 15.65l-2 2a.48.48 0 0 0 0 .7.48.48 0 0 0 .7 0l2-2a.49.49 0 1 0-.7-.7z"/></svg>