<svg xmlns="http://www.w3.org/2000/svg" viewBox="0 0 24 24"><path d="M14.25 15.5a.5.5 0 0 0-.47.54l.28 3.7a.21.21 0 0 1 0 .14.47.47 0 0 1-.2.15H4.14a.32.32 0 0 1-.31-.35l.69-9.3h1.54v2.1a.51.51 0 0 0 .5.5.5.5 0 0 0 .5-.5v-2.1h.87a.5.5 0 0 0 .5-.5.5.5 0 0 0-.5-.5h-.87v-.55A1.9 1.9 0 0 1 8 7.2a.5.5 0 0 0-.53-.85 2.91 2.91 0 0 0-1.41 2.48v.55h-2a.5.5 0 0 0-.5.46l-.72 9.77a.45.45 0 0 0 0 .12A1.31 1.31 0 0 0 4.14 21h9.77a1.43 1.43 0 0 0 .94-.59 1.06 1.06 0 0 0 .2-.83L14.78 16a.49.49 0 0 0-.53-.5zM17.34 14h-2.4a.5.5 0 0 0-.5.5.51.51 0 0 0 .5.5h2.4a.5.5 0 0 0 .5-.5.5.5 0 0 0-.5-.5zM17.59 4a3.69 3.69 0 0 0-1.45-.26 3.74 3.74 0 0 0-1.43.26 4 4 0 0 0-2.37 5c.09.35.16.68.22 1 .23 1.13.47 2.29 1.89 2.77a.5.5 0 0 0 .49.46h2.4a.5.5 0 0 0 .49-.46c1.42-.49 1.66-1.67 1.89-2.81.06-.32.13-.65.23-1A4 4 0 0 0 17.59 4zM19 8.63c-.11.37-.18.73-.25 1.07-.26 1.28-.4 2-1.75 2.19a.51.51 0 0 0-.35.24V9.64a.5.5 0 0 0-.5-.5.51.51 0 0 0-.5.5v2.5a.46.46 0 0 0-.35-.25c-1.35-.21-1.49-.9-1.75-2.15-.07-.33-.14-.69-.24-1.05A3 3 0 0 1 15.09 5a3.09 3.09 0 0 1 2.12 0A3 3 0 0 1 19 8.63zM16.14 3a.5.5 0 0 0 .5-.5v-.98a.5.5 0 0 0-.5-.5.5.5 0 0 0-.5.5v.94a.5.5 0 0 0 .5.54zM12 4.39a.47.47 0 0 0 .35.15.5.5 0 0 0 .35-.85L12 3a.5.5 0 1 0-.71.71zM21 3a.51.51 0 0 0-.71 0l-.65.66a.5.5 0 0 0 .35.85.51.51 0 0 0 .36-.15l.65-.62A.5.5 0 0 0 21 3z"/><path d="M9.81 8.36h.93a.5.5 0 0 0 .5-.5.5.5 0 0 0-.5-.5h-.93a.5.5 0 0 0-.5.5.5.5 0 0 0 .5.5zM22.48 7.36h-.93a.5.5 0 0 0-.5.5.5.5 0 0 0 .5.5h.93a.5.5 0 0 0 .5-.5.5.5 0 0 0-.5-.5z"/></svg>