<svg xmlns="http://www.w3.org/2000/svg" viewBox="0 0 24 24"><path d="M17.45 7.78a.53.53 0 0 0-.36-.15h-1.67l-.22-1.54a.5.5 0 0 0-.49-.43h-.36V3a.5.5 0 0 0-.5-.5h-3.7a.5.5 0 0 0-.5.5v2.66h-.36a.5.5 0 0 0-.49.43l-.22 1.54H6.91a.53.53 0 0 0-.36.15.52.52 0 0 0-.14.36c0 6.24 1 11 2.47 12.66a2 2 0 0 0 1.51.69h3.22a2 2 0 0 0 1.5-.69c1.53-1.71 2.43-6.32 2.48-12.66a.52.52 0 0 0-.14-.36zm-6.8-4.27h2.7v2.15h-2.7zm-.92 3.15h4.54l.14 1H9.59zm4.63 13.48a1 1 0 0 1-.75.35H10.4a1 1 0 0 1-.77-.35C8.61 19 7.51 15.38 7.41 8.63h9.18c-.1 6.76-1.21 10.37-2.23 11.51z"/></svg>