<svg xmlns="http://www.w3.org/2000/svg" viewBox="0 0 24 24"><path d="M12 15.5a3 3 0 0 1-1.15-.23l-.74.74a4 4 0 0 0 5.4-5.4l-.74.74A3 3 0 0 1 15 12.5a3 3 0 0 1-3 3zM12 9.5h.34l.84-.83A3.84 3.84 0 0 0 12 8.5a4 4 0 0 0-4 4 3.84 3.84 0 0 0 .2 1.18l.8-.84v-.34a3 3 0 0 1 3-3z"/><path d="M18.63 7.5l-.73.72A2 2 0 0 1 19 10v6a2 2 0 0 1-2 2H8.12l-1 1H17a3 3 0 0 0 3-3v-6a3 3 0 0 0-1.37-2.5zM5.14 16.73A1.94 1.94 0 0 1 5 16v-6a2 2 0 0 1 2.07-2 2 2 0 0 0 1.79-1.11L9 6.55A1 1 0 0 1 9.93 6h4.14a1 1 0 0 1 .9.55l.12.24.74-.74a2 2 0 0 0-1.76-1H9.93a2 2 0 0 0-1.79 1.06L8 6.45A1 1 0 0 1 7 7a3 3 0 0 0-3 3v6a3 3 0 0 0 .4 1.48zM19.85 4.15a.48.48 0 0 0-.7 0l-15 15a.48.48 0 0 0 0 .7.48.48 0 0 0 .7 0l15-15a.48.48 0 0 0 0-.7z"/></svg>