<svg xmlns="http://www.w3.org/2000/svg" viewBox="0 0 24 24"><path d="M12.71 14.5l2.14-2.15a.49.49 0 0 0-.7-.7L12 13.79l-2.15-2.14a.49.49 0 0 0-.7.7l2.14 2.15-2.14 2.15a.48.48 0 0 0 0 .7.48.48 0 0 0 .7 0L12 15.21l2.15 2.14a.47.47 0 0 0 .35.15.5.5 0 0 0 .35-.85z"/><path d="M18.4 7.65a.5.5 0 0 0-.5-.46h-2.4v-.76a3.41 3.41 0 0 0-6.81 0v.76h-2.5a.5.5 0 0 0-.5.46l-.87 11.69v.13a1.47 1.47 0 0 0 1.46 1.47H18a1.62 1.62 0 0 0 1.07-.65 1.29 1.29 0 0 0 .22-.94zM9.69 6.43a2.41 2.41 0 0 1 4.81 0v.76H9.69zm8.53 13.28a.59.59 0 0 1-.37.23H6.28a.49.49 0 0 1-.46-.53l.83-11.22h2V9.5a.5.5 0 0 0 1 0V8.19h4.85V9.5a.5.5 0 0 0 .5.5.5.5 0 0 0 .5-.5V8.19h1.94l.84 11.28a.3.3 0 0 1-.06.24z"/></svg>