<svg xmlns="http://www.w3.org/2000/svg" viewBox="0 0 24 24"><path d="M22.1 12.39a4.51 4.51 0 0 1-2.35.35c-.45-.3-.88-.6-1.28-.92a4.17 4.17 0 0 0 3.21-1.7c.1-.17-.1-.29-.26-.18a6.59 6.59 0 0 1-4 1l-.65-.5a5.35 5.35 0 0 0 3.45-3c.06-.19-.16-.26-.28-.11a7.72 7.72 0 0 1-4.38 2.37 9.49 9.49 0 0 0-1-.5A5 5 0 0 0 17 5.38c0-.2-.23-.25-.32-.07-1.2 2.39-2.36 3-3.47 3.43A9.56 9.56 0 0 0 12 8.56a4.12 4.12 0 0 0 1.18-3.71c0-.2-.28-.19-.32 0A5.32 5.32 0 0 1 11 8.5a6.15 6.15 0 0 0-.75.06 3.85 3.85 0 0 0 .27-2.2.18.18 0 0 0-.36 0 4.83 4.83 0 0 1-.86 2.33A11.47 11.47 0 0 0 3.78 12c-.51.47-1 .91-1.48 1.29a1.08 1.08 0 0 0-.41.85 1 1 0 0 0 .41.86l.26.19A13.54 13.54 0 0 0 11 18.5c3.77 0 6.27-2.1 8.1-3.64.43-.36.83-.7 1.19-.95l.57-.4a2.65 2.65 0 0 0 1.49-.93c.11-.15-.08-.28-.25-.19zm-7.38-.79a1.5 1.5 0 1 1-1.5-1.5 1.5 1.5 0 0 1 1.5 1.5zm3.73 2.5c-1.71 1.43-4 3.4-7.45 3.4-3.66 0-6.07-1.81-7.84-3.13l-.25-.27c.53-.41 1-.86 1.55-1.35A22 22 0 0 1 6.54 11a4.38 4.38 0 0 0 0 .51 4.5 4.5 0 0 0 9 0 4.17 4.17 0 0 0-.06-.71c.63.41 1.21.87 1.81 1.35a23.34 23.34 0 0 0 1.87 1.4z"/></svg>