<svg xmlns="http://www.w3.org/2000/svg" viewBox="0 0 24 24"><path d="M9.21 17.34H6a.47.47 0 0 1-.43-.25.5.5 0 0 1 0-.5L8.32 12H6a.5.5 0 0 1 0-1h3.21a.5.5 0 0 1 .43.25.49.49 0 0 1 0 .51l-2.76 4.58h2.33a.51.51 0 0 1 .5.5.5.5 0 0 1-.5.5zM15.25 20.11H13a.52.52 0 0 1-.45-.27.53.53 0 0 1 0-.52L14.27 17H13a.5.5 0 0 1 0-1h2.25a.52.52 0 0 1 .45.27.51.51 0 0 1 0 .52L14 19.11h1.27a.5.5 0 0 1 0 1zM17.27 12.55h-4.86a.51.51 0 0 1-.44-.26.52.52 0 0 1 0-.51L16.35 5h-3.94a.5.5 0 0 1 0-1h4.86a.51.51 0 0 1 .44.26.49.49 0 0 1 0 .51l-4.36 6.78h3.94a.5.5 0 0 1 .5.5.5.5 0 0 1-.52.5z"/></svg>