<svg xmlns="http://www.w3.org/2000/svg" viewBox="0 0 24 24"><path d="M3 6.5v11A1.5 1.5 0 0 0 4.5 19H5v-1h-.5a.5.5 0 0 1-.5-.5v-11a.5.5 0 0 1 .5-.5H5V5h-.5A1.5 1.5 0 0 0 3 6.5zM19.5 5H19v1h.5a.5.5 0 0 1 .5.5v11a.5.5 0 0 1-.5.5H19v1h.5a1.5 1.5 0 0 0 1.5-1.5v-11A1.5 1.5 0 0 0 19.5 5zm-5.85 3.21a.51.51 0 0 0-.12-.39l-.12-.08v-.52a.49.49 0 0 0 .37-.47.5.5 0 0 0-.5-.5H9.67a.5.5 0 0 0 0 1h.57v.49a.34.34 0 0 0-.12.09.52.52 0 0 0-.13.38 2.61 2.61 0 0 1-.05.9 5.93 5.93 0 0 0-.49 2.45v5.1a.8.8 0 0 0 .75.87h3.28a.79.79 0 0 0 .72-.85v-5.11a5.7 5.7 0 0 0-.47-2.39 2.88 2.88 0 0 1-.08-.97zm-2.41-1h1.17v.41h-1.17zm2 9.28h-2.79v-5a5.3 5.3 0 0 1 .43-2.13 3.34 3.34 0 0 0 .12-.7h1.65a3.86 3.86 0 0 0 .14.85 5 5 0 0 1 .41 2.05zM16 3H8a2 2 0 0 0-2 2v14a2 2 0 0 0 2 2h8a2 2 0 0 0 2-2V5a2 2 0 0 0-2-2zm1 16a1 1 0 0 1-1 1H8a1 1 0 0 1-1-1V5a1 1 0 0 1 1-1h8a1 1 0 0 1 1 1z"/></svg>