<svg xmlns="http://www.w3.org/2000/svg" xmlns:xlink="http://www.w3.org/1999/xlink" width="24" height="24" viewBox="0 0 24 24"><defs><style>.a,.e,.f,.g{fill:none;}.b{opacity:0;}.c{clip-path:url(#a);}.d{fill:#ebebea;}.e{stroke:#afaeae;}.e,.f,.g{stroke-miterlimit:10;}.f,.g{stroke:#333;}.g{stroke-width:2px;}.h{stroke:none;}</style><clipPath id="a"><rect class="a" width="24" height="24"/></clipPath></defs><g class="b" transform="translate(3 -11)"><g class="c" transform="translate(-3 11)"><rect class="d" width="24" height="24"/><circle class="e" cx="9" cy="9" r="9" transform="translate(3 3)"/></g></g><path class="f" d="M18.25,21H5.75A1.248,1.248,0,0,1,4.5,19.754V12.275a1.248,1.248,0,0,1,1.25-1.246h12.5a1.248,1.248,0,0,1,1.25,1.246v7.479A1.248,1.248,0,0,1,18.25,21Z"/><path class="f" d="M15.75,11.029h2.5a1.248,1.248,0,0,1,1.25,1.246v7.479A1.248,1.248,0,0,1,18.25,21H5.75A1.248,1.248,0,0,1,4.5,19.754V12.275a1.248,1.248,0,0,1,1.25-1.246h2.5V9.5A3.745,3.745,0,0,1,12,5.759h0A3.745,3.745,0,0,1,15.75,9.5Z"/><path class="f" d="M18.25,11.029a1.248,1.248,0,0,1,1.25,1.246v7.479A1.248,1.248,0,0,1,18.25,21H5.75A1.248,1.248,0,0,1,4.5,19.754V12.275a1.248,1.248,0,0,1,1.25-1.246v-1.8h0A6.241,6.241,0,0,1,12,3h0a6.241,6.241,0,0,1,6.25,6.232h0Z"/><g class="g" transform="translate(10.125 12.883)"><ellipse class="h" cx="1.875" cy="1.87" rx="1.875" ry="1.87"/><ellipse class="a" cx="1.875" cy="1.87" rx="0.875" ry="0.87"/></g><g class="g" transform="translate(10.75 14.752)"><rect class="h" width="2.5" height="3.739" rx="1.246"/><rect class="a" x="1" y="1" width="0.5" height="1.739" rx="0.246"/></g></svg>