<svg xmlns="http://www.w3.org/2000/svg" viewBox="0 0 24 24"><path d="M14.39 17.41a.34.34 0 0 0 0-.1v-.08a.36.36 0 0 0 0-.09l-.07-.06-.16-.08H14a8.29 8.29 0 0 1-4.45-2.48A8.18 8.18 0 0 1 7.05 10v-.08a.3.3 0 0 0 0-.1v-.05a.81.81 0 0 0-.09-.1l-.14-.07h-.2a.29.29 0 0 0-.13 0 7.11 7.11 0 0 0-4 2.05.51.51 0 0 0 0 .71.52.52 0 0 0 .71 0 6 6 0 0 1 3-1.67 6.51 6.51 0 0 0 .47 1.39A7.47 7.47 0 0 0 3 14.44a.5.5 0 0 0 .37.83.52.52 0 0 0 .38-.17A6.68 6.68 0 0 1 7.1 13a9.83 9.83 0 0 0 .75 1.11 17.33 17.33 0 0 0-3.14 2.65.5.5 0 0 0 .36.85.47.47 0 0 0 .35-.15 16.68 16.68 0 0 1 3.08-2.61l.31.33.33.31a16 16 0 0 1-2.59 3.08.51.51 0 0 0 0 .71.51.51 0 0 0 .36.15.52.52 0 0 0 .35-.14 17.4 17.4 0 0 0 2.66-3.14 11.84 11.84 0 0 0 1.1.75 6.59 6.59 0 0 1-2.12 3.33.5.5 0 0 0 0 .7.52.52 0 0 0 .38.17.54.54 0 0 0 .28-.1 7.54 7.54 0 0 0 2.35-3.61 8.13 8.13 0 0 0 1.39.47 6.11 6.11 0 0 1-1.66 3 .5.5 0 0 0 .35.85.51.51 0 0 0 .36-.15 7.09 7.09 0 0 0 2.05-4s-.01-.12-.01-.15zM21.54 11.64a.51.51 0 0 0-.71 0 6 6 0 0 1-3 1.67 6.51 6.51 0 0 0-.47-1.39A7.47 7.47 0 0 0 21 9.56a.5.5 0 0 0-.75-.66 6.61 6.61 0 0 1-3.36 2.1 9.83 9.83 0 0 0-.75-1.11 17.33 17.33 0 0 0 3.14-2.65.5.5 0 0 0 0-.71.5.5 0 0 0-.71 0 16.31 16.31 0 0 1-3.07 2.59l-.31-.33-.33-.31a16 16 0 0 1 2.59-3.08.51.51 0 0 0 0-.71.5.5 0 0 0-.71 0 17.4 17.4 0 0 0-2.66 3.14A11.84 11.84 0 0 0 13 7.1a6.59 6.59 0 0 1 2.1-3.33.5.5 0 0 0-.67-.77 7.54 7.54 0 0 0-2.35 3.61 8.13 8.13 0 0 0-1.39-.47 6.11 6.11 0 0 1 1.66-3 .49.49 0 0 0-.7-.7 7 7 0 0 0-2.06 4v.08a.49.49 0 0 0 0 .12.21.21 0 0 0 0 .07v.1l.06.06.18.13h.09a.29.29 0 0 0 .1 0 8.29 8.29 0 0 1 4.45 2.48A8.18 8.18 0 0 1 16.94 14a.49.49 0 0 0 .06.17.39.39 0 0 0 .08.1h.06l.1.05h.23a7.11 7.11 0 0 0 4-2.05.51.51 0 0 0 .07-.63z"/></svg>