<svg xmlns="http://www.w3.org/2000/svg" viewBox="0 0 24 24"><path d="M20.18 13.48a.65.65 0 0 0-.1-.15.44.44 0 0 0-.15-.1.58.58 0 0 0-.18 0h-2.53a.5.5 0 0 0-.5.5.5.5 0 0 0 .5.5h1.29L17 15.73a3 3 0 1 0 .71.71l1.56-1.56v1.29a.5.5 0 0 0 .5.5.5.5 0 0 0 .5-.5v-2.51a1 1 0 0 0-.09-.18zm-5 6.69a2 2 0 1 1 2-2 2 2 0 0 1-1.96 2zm-4 .09H8.71a1.1 1.1 0 0 1-.77-.36c-1-1.14-2.12-4.76-2.22-11.5h9.18c0 1-.05 1.89-.11 2.74a.5.5 0 0 0 .47.53.51.51 0 0 0 .53-.46c.07-1 .1-2.13.11-3.31a.48.48 0 0 0-.5-.5h-1.67l-.22-1.55a.49.49 0 0 0-.51-.43h-.36V2.77a.5.5 0 0 0-.5-.5H8.46a.5.5 0 0 0-.5.5v2.65H7.6a.49.49 0 0 0-.49.43L6.89 7.4H5.22a.52.52 0 0 0-.36.14.54.54 0 0 0-.14.36c0 6.24 1 11 2.47 12.66a2 2 0 0 0 1.51.7h2.52a.51.51 0 0 0 .5-.5.5.5 0 0 0-.5-.5zM9 3.27h2.7v2.15H9zM8 6.42h4.54l.14 1H7.9z"/></svg>