<svg xmlns="http://www.w3.org/2000/svg" viewBox="0 0 24 24"><path d="M12 13.69a.49.49 0 1 0 .47.48.48.48 0 0 0-.47-.48zm-2 1.57a.48.48 0 0 0-.47.48.48.48 0 1 0 .95 0 .48.48 0 0 0-.48-.48zm-1.95 1.6a.49.49 0 0 0 0 1 .49.49 0 0 0 0-1zM12 11.49a.47.47 0 0 0-.47.48.47.47 0 1 0 .94 0 .47.47 0 0 0-.47-.48zm-5.77 6.42a1.78 1.78 0 1 0-2.64 0A3 3 0 0 0 2 20.53a.47.47 0 1 0 .93 0 2 2 0 0 1 .58-1.42 2 2 0 0 1 1.36-.59h.07a2 2 0 0 1 1.95 2 .47.47 0 1 0 .93 0 3 3 0 0 0-1.59-2.61zm-1.3-.33a.86.86 0 0 1-.83-.86.85.85 0 1 1 1.7 0 .86.86 0 0 1-.87.86zm15.48.33a1.78 1.78 0 1 0-2.64 0 3 3 0 0 0-1.59 2.62.47.47 0 1 0 .93 0 2 2 0 0 1 .58-1.42 2 2 0 0 1 1.36-.59h.08a2 2 0 0 1 1.94 2 .47.47 0 1 0 .93 0 3 3 0 0 0-1.59-2.61zm-1.3-.33a.86.86 0 0 1-.83-.86.85.85 0 1 1 1.7 0 .86.86 0 0 1-.87.86zm-2.72-.23a.49.49 0 0 0-.48-.49.49.49 0 0 0 0 1 .49.49 0 0 0 .48-.51zM14 15.26a.48.48 0 0 0-.48.48.48.48 0 1 0 .48-.48zM13.32 6a1.78 1.78 0 1 0-2.64 0 3 3 0 0 0-1.59 2.62.47.47 0 1 0 .93 0 2 2 0 0 1 .58-1.43 1.94 1.94 0 0 1 1.4-.58 2 2 0 0 1 1.94 2 .47.47 0 1 0 .93 0A3 3 0 0 0 13.32 6zM12 5.67a.86.86 0 1 1 .87-.85.87.87 0 0 1-.87.85zm0 3.65a.47.47 0 0 0-.47.48.47.47 0 1 0 .94 0 .47.47 0 0 0-.47-.48z"/></svg>