<svg xmlns="http://www.w3.org/2000/svg" viewBox="0 0 24 24"><path d="M10.44 10v-.84a.51.51 0 0 0-.5-.5H9l-.37-1.5a.52.52 0 0 0-.46-.38V4.5a.5.5 0 0 0-.5-.5H4.92a.5.5 0 0 0-.5.5v2.31h-.07a.49.49 0 0 0-.48.38l-.38 1.5h-1a.5.5 0 0 0-.5.5 25 25 0 0 0 .66 6.16 7.1 7.1 0 0 0 1.49 3.2 1.66 1.66 0 0 0 1.16.51h2.33a1.66 1.66 0 0 0 1.16-.51 5.83 5.83 0 0 0 1-2.49h-1a4.62 4.62 0 0 1-.75 1.83.65.65 0 0 1-.44.2H5.29a.7.7 0 0 1-.46-.22 6.26 6.26 0 0 1-1.22-2.73A23.84 23.84 0 0 1 3 9.69h6.45v.34zm-5-5h1.69v1.81H5.42zm-.9 3.69l.22-.88h3l.22.88zM21 7.75h-.87v-.87h.43a.5.5 0 0 0 .5-.5V4.5a.5.5 0 0 0-.5-.5h-4.64a.5.5 0 0 0-.5.5v1.88a.5.5 0 0 0 .5.5h.43v.87h-.87a1 1 0 0 0-1 1V10h1V8.75H21v9.31h-5.52V16h-1v2a1 1 0 0 0 1 1H21a1 1 0 0 0 1-1V8.75a1 1 0 0 0-1-1zm-1.87 0h-1.78v-.87h1.82zm.93-1.87h-3.64V5h3.68z"/><circle cx="12.01" cy="13.03" r="1"/><circle cx="16.01" cy="13.03" r="1"/><circle cx="8.01" cy="13.03" r="1"/></svg>