<svg xmlns="http://www.w3.org/2000/svg" viewBox="0 0 24 24"><path d="M17 7.5V4a1 1 0 0 0-1.6-.78c-.64.5-1.19 1-1.59 1.33A2.42 2.42 0 0 0 13 6.36V7.5A1.49 1.49 0 0 0 14.25 9v5H14a1 1 0 0 0-1 1v4.5a1.5 1.5 0 0 0 1.5 1.5h1a1.5 1.5 0 0 0 1.5-1.5V15a1 1 0 0 0-1-1h-.25V9A1.49 1.49 0 0 0 17 7.5zm-1 12a.5.5 0 0 1-.5.5h-1a.5.5 0 0 1-.5-.5V15h2zm-2-12V6.36a1.4 1.4 0 0 1 .47-1.06c.39-.3.93-.81 1.53-1.3v3.5a.5.5 0 0 1-.5.5h-1a.5.5 0 0 1-.5-.5zM10 9H8a1 1 0 0 0-1 1v9.5A1.5 1.5 0 0 0 8.5 21h1a1.5 1.5 0 0 0 1.5-1.5V10a1 1 0 0 0-1-1zm0 1v1H8v-1zm-.5 10h-1a.5.5 0 0 1-.5-.5V12h2v7.5a.5.5 0 0 1-.5.5z"/></svg>