<svg xmlns="http://www.w3.org/2000/svg" viewBox="0 0 24 24"><path d="M17 21H7a3 3 0 0 1-3-3v-.5A1.5 1.5 0 0 1 5.5 16h13a1.5 1.5 0 0 1 1.5 1.5v.5a3 3 0 0 1-3 3zM5.5 17a.5.5 0 0 0-.5.5v.5a2 2 0 0 0 2 2h10a2 2 0 0 0 2-2v-.5a.5.5 0 0 0-.5-.5h-1.73l-.41.61a2 2 0 0 1-1.66.89H9.3a2 2 0 0 1-1.66-.89L7.23 17zm2.93 0v.05a1 1 0 0 0 .83.45h5.4a1 1 0 0 0 .83-.45V17zM12.65 7.65l-3.5 3.5.7.7 3.5-3.5zm1.5 2l-3.5 3.5.7.7 3.5-3.5zM12 5a6 6 0 0 0-3.31 11H12a5 5 0 1 1 5-5 5 5 0 0 1-5 5h3.31A6 6 0 0 0 12 5zm0-2a8 8 0 0 0-8 8 7.91 7.91 0 0 0 1.77 5h1.34a7 7 0 1 1 9.78 0h1.34A7.91 7.91 0 0 0 20 11a8 8 0 0 0-8-8z"/></svg>