<svg xmlns="http://www.w3.org/2000/svg" width="80" height="80.003" viewBox="0 0 80 80.003"><defs><style>.a{fill:#fafafa;}.b{fill:#bbb;}</style></defs><g transform="translate(0 0)"><path class="a" d="M23.288,58.646l-11.936,6.51a10.726,10.726,0,0,0-1.916,1.363,39.976,39.976,0,0,0,51.363.133,10.589,10.589,0,0,0-2.1-1.41l-12.781-6.39a4.874,4.874,0,0,1-2.694-4.359V49.479a19.3,19.3,0,0,0,1.209-1.555A29.409,29.409,0,0,0,48.4,39.918,4.014,4.014,0,0,0,51.25,36.1V30.746a4,4,0,0,0-1.337-2.966V20.042S51.5,8,35.195,8,20.477,20.042,20.477,20.042V27.78a3.991,3.991,0,0,0-1.337,2.966V36.1a4.013,4.013,0,0,0,1.851,3.368A26.562,26.562,0,0,0,25.83,49.479V54.37A4.879,4.879,0,0,1,23.288,58.646Z" transform="translate(4.808 4.076)"/><path class="b" d="M40.685.006A39.976,39.976,0,0,0,14.262,70.584a10.629,10.629,0,0,1,1.9-1.349l11.936-6.51a4.876,4.876,0,0,0,2.54-4.279V53.554A26.537,26.537,0,0,1,25.8,43.541a4.015,4.015,0,0,1-1.851-3.368V34.821a4,4,0,0,1,1.337-2.966V24.117S23.693,12.076,40,12.076,54.718,24.117,54.718,24.117v7.738a3.991,3.991,0,0,1,1.337,2.966v5.353a4.014,4.014,0,0,1-2.847,3.819A29.409,29.409,0,0,1,49.235,52a19.3,19.3,0,0,1-1.209,1.555v5.015a4.872,4.872,0,0,0,2.694,4.359L63.5,69.317a10.642,10.642,0,0,1,2.1,1.407A39.992,39.992,0,0,0,40.685.006Z" transform="translate(0 0)"/></g></svg>