<svg xmlns="http://www.w3.org/2000/svg" xmlns:xlink="http://www.w3.org/1999/xlink" width="160" height="120" viewBox="0 0 160 120"><defs><style>.a{fill:rgba(255,0,0,0.1);opacity:0;}.b{fill:#ff6c0e;}.c{fill:url(#a);}</style><radialGradient id="a" cx="0.419" cy="0.18" fx="-0.009639152325689793" fy="-0.3771684169769287" r="0.897" gradientTransform="translate(0.124 0) scale(0.705 1)" gradientUnits="objectBoundingBox"><stop offset="0.665" stop-color="#f9b80a"/><stop offset="0.728" stop-color="#f9b40a"/><stop offset="0.787" stop-color="#faa90a"/><stop offset="0.843" stop-color="#fb9609"/><stop offset="0.899" stop-color="#fc7c09"/><stop offset="0.954" stop-color="#fd5a09"/><stop offset="1" stop-color="#ff3708"/></radialGradient></defs><g transform="translate(-454 -812)"><rect class="a" width="160" height="120" transform="translate(454 812)"/><g transform="translate(480 831)"><g transform="translate(0 54.631)"><path class="b" d="M9.528,192c6.512,0,9.528,4.106,9.528,8.084v8.726H14.981v-8.726c0-2.47-1.444-6.512-5.421-6.512s-5.421,4.01-5.421,6.512v8.726H0v-8.726C0,196.106,3.015,192,9.528,192" transform="translate(0 -184.975)"/><path class="b" d="M186.26,209.71c-6.512,0-9.56-4.106-9.56-8.084V192.9h4.106v8.726c0,2.5,1.444,6.512,5.421,6.512s5.421-4.01,5.421-6.512V192.9h4.106v8.726c.032,3.978-2.983,8.084-9.5,8.084" transform="translate(-120.016 -185.586)"/><path class="b" d="M82.625,208.093a6.9,6.9,0,0,1-3.336,1.411c-4.17.642-9.977-2.085-10.2-8.116-.225-6.159,5.871-8.79,9.88-8.694,6.737.193,9.111,5.229,9.111,8.116v8.469H83.94v-8.437c0-1.829-.866-6.544-5.1-6.64-4.17-.1-5.518,3.753-5.518,6.608,0,1.829.385,6.352,5.2,6.64,1.476.1,3.561-.321,4.106-.834Z" transform="translate(-46.92 -185.445)"/><path class="b" d="M149.918,196.373a6.9,6.9,0,0,1-3.785.1c-1.925-.513-5.133-1.379-5.133-8.02V170.1h4.17v7.282h3.817v2.566H145.17s.1,5.165,0,9.335c-.1,3.721,1.059,4.972,1.861,5.389a4.65,4.65,0,0,0,2.887.192Z" transform="translate(-95.768 -170.1)"/><path class="b" d="M248.332,199.787c0-4.074,2.117-6.961,5.838-7.346,2.631-.257,3.561.225,3.561.225v1.668a5.758,5.758,0,0,0-2.887.064c-1.7.513-2.374,3.08-2.374,3.946v10.811H248.3v-9.367Z" transform="translate(-168.647 -185.223)"/><path class="b" d="M292.325,208.093a6.9,6.9,0,0,1-3.336,1.411c-4.17.642-9.977-2.085-10.2-8.116-.225-6.159,5.871-8.79,9.88-8.694,6.737.193,9.111,5.229,9.111,8.116v8.469H293.64v-8.437c0-1.829-.866-6.544-5.1-6.64-4.17-.1-5.518,3.753-5.518,6.608,0,1.829.385,6.352,5.2,6.64,1.476.1,3.561-.321,4.106-.834Z" transform="translate(-189.35 -185.445)"/></g><g transform="translate(18.713)"><path class="c" d="M55.988,15.083a48.454,48.454,0,0,1-2.315,7.182c-.053.132-.013.171.105.118.763-.355,4.17-2.052,7.787-3.591s10.313-1.5,8.6,5.932c-1.723,7.406-10.418,11.8-11.286,12.246-.842.434-1.894.868-2.3,1.131-.158.105-.25.224.039.3.921.237,4.025.066,4,1.368-.039,1.407-2.315,3.709-8.261,6.235a21.04,21.04,0,0,1-13.233,1.21.1.1,0,0,0-.105.026c-.355.381-3.367,3.275-11.917,1.8-6.156-1.065-7.682-1.671-9.063-3.328a2.12,2.12,0,0,1-.145-2.394c.132-.276.158-.421-.026-.46C8.594,40.944,2.951,35.077.9,31.381-.14,29.5.189,28.237.7,27.461c.737-1.1,3.21-1.21,5.775-.552,2.854.737,4.407,1.144,5.012,1.3.2.053.224-.013.105-.158-.71-.894-3.223-4.065-4.525-6.09C4.924,18.621,2.254,9.729,9.225,6.073c7.748-4.038,14.5,3.078,16.008,4.933,1.329,1.6,3.946,5.183,4.17,5.551.342.566.5.079.5.079a69.608,69.608,0,0,1,3.42-9.589A12.974,12.974,0,0,1,46.885.166C56.4,1.942,56.751,11.571,55.988,15.083ZM46.241,7.441c-5.406-1.644-8.761,2.341-10.3,7.432-1.25,4.091-1.513,5.169-2.249,7.3-1.039,2.986-3.525,3.21-5.459.908-2.236-2.7-5.156-6.669-6.827-8.616-2.184-2.539-7.432-4.67-10.1-1.381-4.025,4.972,1.315,10.549,4.117,13.891,1.947,2.355,4.314,3.986,3.538,5.327-.289.5-.908.658-1.723.658-1.96-.026-8.445-1.789-9.931-2.065-1.289-.237-2.249-.158-2.6.8-.434,1.158,1.184,4.433,5.406,6.616,4.183,2.144,10.957,3.223,11.615,3.367,2.447.526,1.973,1.723,1.394,2.341s-1.236,1-1.092,1.631c.342,1.552,3.683,1.868,5.669,2.2a12.6,12.6,0,0,0,6.2-.21c1.71-.684,1.815-1.631,3-2.091,1.578-.605,2.131-.066,5.538.566a20.253,20.253,0,0,0,8.116-.8c3.946-1.315,5.577-2.578,5.564-3.2,0-.487-.684-.671-1.394-.763a16.482,16.482,0,0,1-4.657-1.21c-.96-.618-.237-1.736,1.749-2.539s8.405-3.459,10.813-5.643c2.407-2.157,4.7-5.748,2.657-7.84-1.986-2.065-5.538.066-7.458.947-2.578,1.21-6.7,3.328-8.116,3.657-1.236.276-3.565.184-2.486-2.618,1.355-3.473,2-5.617,2.828-7.708C51.094,15.78,52.568,9.374,46.241,7.441Z" transform="translate(-0.217 0.02)"/></g></g></g></svg>