<svg xmlns="http://www.w3.org/2000/svg" width="132" height="32" viewBox="0 0 132 32"><defs><style>.a{fill:rgba(255,0,0,0.1);opacity:0;}.b{fill:#fff;}</style></defs><g transform="translate(-4)"><rect class="a" width="132" height="32" transform="translate(4)"/><g transform="translate(7.783 3.02)"><g transform="translate(39.996 5.561)"><path class="b" d="M595.408,160.9c5.066,0,7.415,3.184,7.415,6.258v6.758h-3.2v-6.765c0-1.924-1.123-5.032-4.218-5.032s-4.218,3.108-4.218,5.032v6.765H588v-6.765c0-3.074,2.348-6.251,7.408-6.251" transform="translate(-588 -155.464)"/><path class="b" d="M1238.515,176.922c-5.067,0-7.415-3.184-7.415-6.258V163.9h3.2v6.764c0,1.931,1.123,5.039,4.218,5.039s4.218-3.108,4.218-5.039V163.9h3.2v6.764c-.007,3.074-2.355,6.258-7.415,6.258" transform="translate(-1187.069 -158.258)"/><path class="b" d="M850.148,175.286a5.549,5.549,0,0,1-2.595,1.1c-3.245.507-7.75-1.6-7.915-6.285-.171-4.786,4.573-6.806,7.668-6.73,5.224.137,7.073,4.06,7.073,6.292v6.559h-3.218v-6.532c0-1.417-.664-5.067-3.964-5.156-3.232-.082-4.279,2.9-4.286,5.121,0,1.41.308,4.923,4.033,5.135a6.012,6.012,0,0,0,3.2-.637v1.13Z" transform="translate(-822.406 -157.765)"/><path class="b" d="M1107.843,101.841a5.293,5.293,0,0,1-2.944.075c-1.5-.39-4-1.061-4-6.2V81.5h3.245v5.648h2.972v1.986h-2.972s.075,4,0,7.237c-.062,2.876.815,3.862,1.451,4.183a3.527,3.527,0,0,0,2.239.144v1.143Z" transform="translate(-1065.783 -81.5)"/><path class="b" d="M1491.8,167.959c0-3.163,1.643-5.388,4.539-5.683a5.539,5.539,0,0,1,2.78.178v1.287a4.442,4.442,0,0,0-2.253.055c-1.321.4-1.835,2.383-1.835,3.047v8.367H1491.8Z" transform="translate(-1429.92 -156.69)"/><path class="b" d="M1613.241,175.286a5.549,5.549,0,0,1-2.595,1.1c-3.245.507-7.743-1.6-7.908-6.285-.171-4.786,4.573-6.806,7.668-6.73,5.224.137,7.072,4.06,7.072,6.292v6.559h-3.218v-6.532c0-1.417-.664-5.067-3.964-5.156-3.232-.082-4.279,2.9-4.286,5.121,0,1.41.308,4.923,4.033,5.135a6.012,6.012,0,0,0,3.2-.637Z" transform="translate(-1533.259 -157.765)"/></g><path class="b" d="M28.394,7.61a24.482,24.482,0,0,1-1.17,3.629c-.027.066-.007.086.053.06.385-.179,2.107-1.037,3.934-1.814s5.21-.758,4.346,3-5.264,5.961-5.7,6.187-.957.439-1.163.572c-.08.053-.126.113.02.153.465.12,2.034.033,2.02.691-.02.711-1.17,1.874-4.174,3.15a10.63,10.63,0,0,1-6.686.611.052.052,0,0,0-.053.013c-.179.193-1.7,1.655-6.021.91-3.11-.538-3.881-.844-4.579-1.681a1.071,1.071,0,0,1-.073-1.21c.066-.14.08-.213-.013-.233a12.943,12.943,0,0,1-8.573-5.8,1.8,1.8,0,0,1-.1-1.98c.372-.558,1.622-.611,2.918-.279,1.442.372,2.226.578,2.532.658.1.027.113-.007.053-.08-.359-.452-1.628-2.054-2.286-3.077C2.6,9.4,1.246,4.906,4.768,3.058c3.914-2.04,7.324,1.555,8.088,2.492.671.811,1.994,2.618,2.107,2.8.173.286.253.04.253.04A35.169,35.169,0,0,1,16.944,3.55,6.555,6.555,0,0,1,23.8.074C28.6.971,28.78,5.836,28.394,7.61ZM23.47,3.749c-2.731-.831-4.426,1.183-5.2,3.755-.631,2.067-.764,2.612-1.136,3.688-.525,1.509-1.781,1.622-2.758.459-1.13-1.362-2.605-3.369-3.449-4.353-1.1-1.283-3.755-2.359-5.1-.7-2.034,2.512.665,5.33,2.08,7.018.984,1.19,2.18,2.014,1.788,2.692-.146.253-.459.332-.871.332A50.789,50.789,0,0,1,3.8,15.6c-.651-.12-1.136-.08-1.316.405-.219.585.6,2.24,2.731,3.343a24.77,24.77,0,0,0,5.868,1.7c1.236.266,1,.871.7,1.183s-.625.505-.552.824c.173.784,1.861.944,2.864,1.11a6.366,6.366,0,0,0,3.13-.106c.864-.346.917-.824,1.515-1.057.8-.306,1.077-.033,2.8.286a10.232,10.232,0,0,0,4.1-.405c1.994-.665,2.818-1.3,2.811-1.615,0-.246-.346-.339-.7-.385a8.327,8.327,0,0,1-2.353-.611c-.485-.312-.12-.877.884-1.283a23.926,23.926,0,0,0,5.463-2.851c1.216-1.09,2.373-2.9,1.342-3.961-1-1.043-2.8.033-3.768.478a40.138,40.138,0,0,1-4.1,1.848c-.625.14-1.8.093-1.256-1.323.685-1.755,1.01-2.838,1.429-3.894C25.922,7.963,26.666,4.726,23.47,3.749Z" transform="translate(0 0)"/></g></g></svg>