<svg width="208" height="41" viewBox="0 0 208 41" fill="none" xmlns="http://www.w3.org/2000/svg">
<g clip-path="url(#clip0)">
<path d="M19.513 7.154L28.297 26.414H10.797L19.513 7.154ZM128.5 36.142C125.359 36.1236 122.294 35.1759 119.691 33.4182C117.088 31.6606 115.064 29.1717 113.873 26.2653C112.683 23.3589 112.379 20.1651 113.001 17.0865C113.623 14.0078 115.142 11.1821 117.367 8.9655C119.592 6.74893 122.424 5.24071 125.505 4.63094C128.586 4.02117 131.778 4.33715 134.68 5.53905C137.582 6.74095 140.063 8.77497 141.81 11.3847C143.558 13.9945 144.494 17.0632 144.5 20.204C144.502 22.3029 144.09 24.3816 143.286 26.3204C142.482 28.2592 141.302 30.0199 139.815 31.5012C138.328 32.9824 136.563 34.155 134.621 34.9515C132.679 35.748 130.599 36.1525 128.5 36.142ZM71.838 32.376L57.601 0.498005H52.518L70.338 39.527C70.4511 39.8146 70.6508 40.0599 70.9096 40.2288C71.1683 40.3978 71.4732 40.4821 71.782 40.47C72.0963 40.4741 72.4051 40.3872 72.6712 40.2199C72.9373 40.0526 73.1494 39.812 73.282 39.527L91.105 0.498005H86.212L71.838 32.376ZM203.668 0.498005V31.998L174.556 0.692005C174.389 0.483928 174.18 0.314474 173.941 0.195347C173.703 0.0762191 173.441 0.0102528 173.175 0.00200264C172.968 -0.000399184 172.764 0.0416986 172.575 0.125446C172.386 0.209194 172.217 0.332627 172.08 0.487354C171.943 0.642082 171.841 0.824479 171.781 1.02216C171.721 1.21984 171.704 1.42817 171.731 1.633V39.969H176.06L175.938 8.598L205.176 39.783C205.342 39.9919 205.551 40.162 205.79 40.2812C206.029 40.4004 206.29 40.4659 206.557 40.473C206.764 40.4752 206.968 40.433 207.157 40.3492C207.346 40.2654 207.515 40.142 207.652 39.9873C207.788 39.8326 207.891 39.6503 207.951 39.4527C208.011 39.2551 208.028 39.0468 208.001 38.842V0.498005H203.668ZM128.5 -0.00199517C117.081 -0.00199517 107.859 9.409 107.859 20.265C107.859 31.121 117.08 40.465 128.5 40.465C139.92 40.465 149.144 31.051 149.144 20.198C149.144 9.345 139.919 -0.00199517 128.5 -0.00199517ZM19.7 -0.00199517C19.386 -0.00599706 19.0774 0.0806319 18.8114 0.247532C18.5453 0.414432 18.3331 0.654516 18.2 0.938999L0 39.965H4.708L9.097 30.554H30.055L34.447 39.965H39.338L21.138 0.938999C21.0244 0.651954 20.8244 0.407266 20.5657 0.238712C20.3071 0.0701583 20.0025 -0.0139439 19.694 -0.00199517" fill="black"/>
</g>
<defs>
<clipPath id="clip0">
<rect width="208" height="40.47" fill="white"/>
</clipPath>
</defs>
</svg>
