<svg width="208" height="42" viewBox="0 0 208 42" fill="none" xmlns="http://www.w3.org/2000/svg">
<path d="M19.513 7.87201L28.297 27.132H10.797L19.513 7.87201ZM128.5 36.86C125.359 36.8417 122.294 35.8939 119.691 34.1363C117.088 32.3786 115.064 29.8897 113.873 26.9833C112.683 24.0769 112.379 20.8831 113.001 17.8045C113.623 14.7258 115.142 11.9001 117.367 9.68352C119.592 7.46695 122.424 5.95873 125.505 5.34896C128.586 4.73919 131.778 5.05517 134.68 6.25707C137.582 7.45897 140.063 9.49299 141.81 12.1028C143.558 14.7125 144.494 17.7812 144.5 20.922C144.502 23.0209 144.09 25.0996 143.286 27.0384C142.482 28.9772 141.302 30.7379 139.815 32.2192C138.328 33.7005 136.563 34.8731 134.621 35.6695C132.679 36.466 130.599 36.8706 128.5 36.86ZM71.838 33.094L57.601 1.21602H52.518L70.338 40.245C70.4511 40.5326 70.6508 40.7779 70.9096 40.9469C71.1683 41.1158 71.4732 41.2001 71.782 41.188C72.0963 41.1921 72.4051 41.1053 72.6712 40.938C72.9373 40.7707 73.1494 40.53 73.282 40.245L91.105 1.21602H86.212L71.838 33.094ZM203.668 1.21602V32.716L174.556 1.41002C174.389 1.20195 174.18 1.03249 173.941 0.913364C173.703 0.794237 173.441 0.72827 173.175 0.72002C172.968 0.717618 172.764 0.759716 172.575 0.843464C172.386 0.927211 172.217 1.05064 172.08 1.20537C171.943 1.3601 171.841 1.5425 171.781 1.74018C171.721 1.93786 171.704 2.14619 171.731 2.35102V40.687H176.06L175.938 9.31601L205.176 40.501C205.342 40.7099 205.551 40.88 205.79 40.9992C206.029 41.1184 206.29 41.1839 206.557 41.191C206.764 41.1932 206.968 41.151 207.157 41.0672C207.346 40.9834 207.515 40.86 207.652 40.7053C207.788 40.5506 207.891 40.3683 207.951 40.1707C208.011 39.9731 208.028 39.7648 208.001 39.56V1.21602H203.668ZM128.5 0.716022C117.081 0.716022 107.859 10.127 107.859 20.983C107.859 31.839 117.08 41.183 128.5 41.183C139.92 41.183 149.144 31.769 149.144 20.916C149.144 10.063 139.919 0.716022 128.5 0.716022ZM19.7 0.716022C19.386 0.712021 19.0774 0.79865 18.8114 0.965549C18.5453 1.13245 18.3331 1.37253 18.2 1.65702L0 40.683H4.708L9.097 31.272H30.055L34.447 40.683H39.338L21.138 1.65702C21.0244 1.36997 20.8244 1.12528 20.5657 0.95673C20.3071 0.788176 20.0025 0.704074 19.694 0.716022" fill="black"/>
</svg>
