<svg width="208" height="30" viewBox="0 0 208 30" fill="none" xmlns="http://www.w3.org/2000/svg">
<g clip-path="url(#clip0)">
<path d="M16.321 27.635L6.38999 16.402V28.53H-5.73415e-06V8.139C-0.0315424 7.85353 0.00147486 7.56462 0.0965977 7.29362C0.19172 7.02262 0.346529 6.77645 0.54957 6.57331C0.752612 6.37018 0.99869 6.21526 1.26965 6.12C1.54061 6.02475 1.82951 5.9916 2.115 6.023H3.33599C3.83051 6.01416 4.32181 6.10426 4.781 6.288C5.22313 6.47943 5.61903 6.76349 5.942 7.121L15.832 18.314V6.227H22.262V26.618C22.2937 26.9037 22.2608 27.1928 22.1657 27.464C22.0706 27.7352 21.9157 27.9816 21.7126 28.1848C21.5094 28.3881 21.2631 28.5431 20.9919 28.6383C20.7208 28.7335 20.4317 28.7666 20.146 28.735H18.925C18.4305 28.7439 17.9392 28.6537 17.48 28.47C17.0386 28.2779 16.6434 27.9935 16.321 27.636" fill="black"/>
<path d="M37.487 23.524C38.2674 23.5461 39.0432 23.3974 39.7601 23.0882C40.477 22.779 41.1176 22.3168 41.637 21.734C42.7268 20.5321 43.3104 18.9558 43.266 17.334C43.2867 15.7599 42.7038 14.2377 41.637 13.08C41.1206 12.4921 40.481 12.0251 39.7638 11.7121C39.0466 11.3991 38.2693 11.2478 37.487 11.269C36.7258 11.2499 35.97 11.4028 35.276 11.7164C34.5821 12.0299 33.9678 12.4961 33.479 13.08C32.4362 14.2805 31.8776 15.8262 31.912 17.416C31.8683 19.0067 32.4281 20.5551 33.479 21.75C33.9741 22.3238 34.5905 22.7802 35.2837 23.0864C35.9769 23.3925 36.7295 23.5406 37.487 23.52V23.524ZM36.063 29.178C34.6016 29.191 33.1556 28.8784 31.83 28.263C30.5545 27.6712 29.4124 26.8264 28.473 25.78C27.5093 24.6897 26.7626 23.4254 26.273 22.055C25.7347 20.5682 25.4658 18.9972 25.479 17.416C25.4698 15.8395 25.7456 14.2744 26.293 12.796C26.7946 11.4149 27.5473 10.1384 28.513 9.03101C29.4549 7.96855 30.6041 7.10995 31.89 6.508C33.2197 5.88124 34.6731 5.56136 36.143 5.57201C37.4175 5.56137 38.6794 5.825 39.843 6.345C40.9936 6.86962 42.0096 7.64932 42.814 8.625V6.22501H48.96V28.525H43.14V25.798C42.3334 26.8819 41.2707 27.7491 40.047 28.322C38.7967 28.8975 37.4344 29.1892 36.058 29.176" fill="black"/>
<path d="M61.415 28.531C59.1737 28.6612 56.9717 27.9003 55.289 26.414C54.5322 25.6534 53.9438 24.7423 53.5619 23.7397C53.1799 22.737 53.013 21.6653 53.072 20.594V3.8147e-06H59.664V6.22699H65.484V11.803H59.664V20.147C59.6437 20.5242 59.7019 20.9016 59.8349 21.2551C59.968 21.6087 60.173 21.9308 60.437 22.201C60.742 22.4678 61.0967 22.6718 61.4808 22.8012C61.8648 22.9306 62.2707 22.9828 62.675 22.955H65.484V28.531H61.415Z" fill="black"/>
<path d="M79.935 29.182C76.461 29.182 73.768 28.219 71.856 26.293C70.8776 25.2581 70.119 24.0357 69.6259 22.6996C69.1328 21.3635 68.9155 19.9414 68.987 18.519V6.227H75.745V18.885C75.6927 20.1005 76.0513 21.2982 76.763 22.285C77.181 22.7038 77.6774 23.036 78.2239 23.2627C78.7705 23.4894 79.3563 23.606 79.948 23.606C80.5397 23.606 81.1255 23.4894 81.6721 23.2627C82.2186 23.036 82.715 22.7038 83.133 22.285C83.8328 21.2933 84.1845 20.0977 84.133 18.885V6.227H90.889V18.519C90.9642 19.9449 90.7487 21.3713 90.2555 22.7113C89.7623 24.0513 89.0017 25.2771 88.02 26.314C86.1067 28.2273 83.4137 29.1837 79.941 29.183" fill="black"/>
<path d="M103.049 6.227H107.119V11.803H104.31C103.906 11.7752 103.5 11.8274 103.116 11.9568C102.732 12.0862 102.377 12.2902 102.072 12.557C101.808 12.8273 101.603 13.1494 101.47 13.5029C101.337 13.8565 101.279 14.2338 101.299 14.611V28.531H94.709V14.163C94.6502 13.0919 94.8173 12.0204 95.1992 11.0179C95.5811 10.0155 96.1694 9.10448 96.926 8.34399C98.6087 6.85769 100.811 6.09675 103.052 6.227" fill="black"/>
<path d="M120.511 23.524C121.292 23.5459 122.067 23.3971 122.784 23.0879C123.501 22.7787 124.142 22.3167 124.662 21.734C125.751 20.5315 126.333 18.9554 126.289 17.334C126.31 15.7603 125.728 14.2382 124.662 13.08C124.145 12.4922 123.506 12.0252 122.788 11.7123C122.071 11.3993 121.293 11.248 120.511 11.269C119.75 11.25 118.994 11.403 118.3 11.7166C117.606 12.0301 116.992 12.4962 116.503 13.08C115.46 14.2805 114.902 15.8262 114.936 17.416C114.892 19.0067 115.452 20.5551 116.503 21.75C116.998 22.3237 117.615 22.7801 118.308 23.0863C119.001 23.3924 119.754 23.5405 120.511 23.52V23.524ZM119.087 29.178C117.626 29.1911 116.18 28.8785 114.854 28.263C113.579 27.6708 112.437 26.8261 111.497 25.78C110.533 24.6897 109.787 23.4254 109.297 22.055C108.759 20.5681 108.49 18.9972 108.504 17.416C108.494 15.8395 108.77 14.2743 109.318 12.796C109.819 11.4151 110.57 10.1386 111.535 9.03101C112.477 7.96819 113.627 7.10954 114.913 6.508C116.243 5.88113 117.697 5.56125 119.167 5.57201C120.442 5.56134 121.703 5.82497 122.867 6.345C124.018 6.86962 125.034 7.64932 125.838 8.625V6.22501H131.984V28.525H126.163V25.798C125.357 26.8827 124.294 27.75 123.07 28.322C121.82 28.8977 120.458 29.1893 119.082 29.176" fill="black"/>
<path d="M148.868 13.676L149.194 14.042C149.735 13.736 150.217 13.3364 150.618 12.862C150.957 12.4638 151.144 11.9588 151.147 11.436C151.141 11.0401 150.996 10.6589 150.739 10.358C150.596 10.1866 150.415 10.0511 150.21 9.96271C150.005 9.87429 149.782 9.83534 149.559 9.84901C149.336 9.84673 149.116 9.8888 148.91 9.97275C148.704 10.0567 148.516 10.1809 148.359 10.338C148.193 10.4943 148.062 10.6838 147.974 10.8942C147.886 11.1046 147.844 11.3311 147.85 11.559C147.854 11.9044 147.931 12.2452 148.075 12.559C148.276 12.9729 148.544 13.351 148.868 13.678V13.676ZM145.287 22.51C145.298 22.7477 145.357 22.9807 145.462 23.1943C145.567 23.4079 145.715 23.5974 145.897 23.751C146.136 23.9595 146.413 24.1189 146.714 24.2202C147.014 24.3214 147.332 24.3625 147.648 24.341C148.269 24.3372 148.886 24.2411 149.479 24.056C150.12 23.8589 150.734 23.5856 151.31 23.242L147.892 19.701L146.955 20.189C146.441 20.4482 145.996 20.8251 145.655 21.289C145.417 21.6521 145.29 22.0768 145.29 22.511L145.287 22.51ZM147.406 29.023C146.26 29.043 145.118 28.8713 144.028 28.515C143.137 28.2236 142.308 27.7678 141.585 27.171C140.958 26.645 140.457 25.9842 140.12 25.238C139.799 24.5208 139.632 23.7439 139.632 22.958C139.64 21.8698 139.935 20.803 140.487 19.865C141.28 18.6619 142.393 17.7037 143.701 17.098L144.801 16.487C144.043 15.6944 143.436 14.7703 143.01 13.76C142.677 12.9597 142.497 12.1038 142.481 11.237C142.473 10.3945 142.655 9.56113 143.015 8.79917C143.374 8.03721 143.902 7.36641 144.557 6.837C145.96 5.63641 147.758 4.99833 149.604 5.046C150.591 5.02892 151.571 5.20138 152.493 5.55401C153.283 5.86124 154.003 6.32559 154.609 6.919C155.162 7.46589 155.604 8.11532 155.909 8.831C156.203 9.513 156.355 10.2475 156.357 10.99C156.365 12.2429 155.98 13.4668 155.257 14.49C154.442 15.6249 153.403 16.5809 152.205 17.299L154.85 20.188C155.203 19.7547 155.542 19.2937 155.869 18.805C156.184 18.3347 156.443 17.8293 156.641 17.299H162.094C161.596 18.5137 160.997 19.6844 160.303 20.799C159.659 21.8393 158.922 22.8199 158.103 23.729L162.54 28.529H156.394L154.644 26.696C153.532 27.4296 152.328 28.0114 151.062 28.426C149.879 28.813 148.643 29.0121 147.399 29.016" fill="black"/>
<path d="M176.499 29.182C174.72 29.204 172.953 28.8936 171.288 28.267C169.799 27.7093 168.436 26.8593 167.28 25.767C166.176 24.7016 165.304 23.4204 164.717 22.003C164.102 20.5267 163.79 18.9414 163.801 17.342C163.791 15.7624 164.103 14.1973 164.717 12.742C165.304 11.3366 166.177 10.0685 167.28 9.018C168.443 7.93505 169.804 7.08625 171.288 6.518C172.963 5.87593 174.745 5.55828 176.539 5.582C177.442 5.58261 178.343 5.67814 179.226 5.867C179.994 6.01808 180.744 6.25004 181.464 6.559V12.38C180.911 12.1379 180.339 11.9402 179.755 11.789C178.906 11.5719 178.031 11.4694 177.155 11.484C175.339 11.3773 173.555 11.9919 172.19 13.194C171.615 13.7202 171.159 14.3622 170.85 15.0777C170.541 15.7931 170.388 16.5659 170.399 17.345C170.379 18.1434 170.528 18.9371 170.837 19.6737C171.146 20.4103 171.607 21.0733 172.19 21.619C173.555 22.8207 175.339 23.4349 177.155 23.328C178.033 23.3439 178.908 23.2342 179.755 23.002C180.338 22.8395 180.91 22.6356 181.464 22.392V28.211C180.754 28.5275 180.01 28.76 179.247 28.904C178.343 29.0929 177.422 29.1884 176.499 29.189" fill="black"/>
<path d="M195.872 23.524C196.645 23.5488 197.414 23.4031 198.125 23.0972C198.835 22.7913 199.47 22.3327 199.983 21.754C201.054 20.5377 201.621 18.9589 201.569 17.339C201.607 15.7578 201.04 14.2219 199.983 13.045C199.46 12.4863 198.828 12.0409 198.126 11.7364C197.425 11.4319 196.668 11.2748 195.902 11.2748C195.137 11.2748 194.38 11.4319 193.678 11.7364C192.977 12.0409 192.345 12.4863 191.822 13.045C190.753 14.2158 190.177 15.754 190.214 17.339C190.162 18.9627 190.738 20.5439 191.822 21.754C192.327 22.3265 192.951 22.7816 193.651 23.0874C194.351 23.3931 195.109 23.5422 195.872 23.524ZM195.872 29.182C194.22 29.1987 192.58 28.8877 191.049 28.267C189.623 27.6916 188.323 26.8423 187.223 25.767C186.144 24.6969 185.286 23.4242 184.7 22.022C184.081 20.54 183.77 18.9479 183.785 17.342C183.76 15.0123 184.44 12.7296 185.737 10.7938C187.033 8.85802 188.885 7.35978 191.049 6.496C192.58 5.87502 194.22 5.56369 195.872 5.58C197.531 5.56517 199.176 5.8764 200.715 6.496C202.149 7.06739 203.456 7.91705 204.561 8.996C205.659 10.0892 206.529 11.3899 207.119 12.8224C207.709 14.2549 208.009 15.7906 208 17.34C208.015 18.9459 207.704 20.5381 207.085 22.02C206.498 23.4223 205.641 24.6949 204.561 25.765C203.456 26.8434 202.149 27.693 200.715 28.265C199.176 28.8842 197.531 29.1951 195.872 29.18" fill="black"/>
</g>
<defs>
<clipPath id="clip0">
<rect width="208" height="29.182" fill="white"/>
</clipPath>
</defs>
</svg>
