<?xml version="1.0" encoding="utf-8"?>
<!-- Generator: Adobe Illustrator 25.1.0, SVG Export Plug-In . SVG Version: 6.00 Build 0)  -->
<svg version="1.1" id="Layer_1" xmlns="http://www.w3.org/2000/svg" xmlns:xlink="http://www.w3.org/1999/xlink" x="0px" y="0px"
	 viewBox="0 0 670 153.2" style="enable-background:new 0 0 670 153.2;" xml:space="preserve">
<style type="text/css">
	.st0{fill:#1D1D1B;}
</style>
<g>
	<path class="st0" d="M232.1,144.8l-67-140h18.2c8.3,0,15.9,4.8,19.4,12.3l36.8,78.5L276,17.2c3.5-7.6,11.1-12.4,19.4-12.4h18.3
		l-67,140L232.1,144.8L232.1,144.8z"/>
	<path class="st0" d="M80.9,52.9l18.2,38.5c-10-4.8-20.7-8.2-31.6-10.3L80.9,52.9z M88.4,4.8h-15l-68.8,140h16.7
		c8.3,0,15.5-4.1,20.4-12.3l14.4-28c25.7,3.1,48.4,12.7,68.9,40.3h32.2L88.4,4.8z"/>
	<path class="st0" d="M651.6,4.8c-8.1,0-14.8,6.6-14.7,14.8l0.1,73.9L563.8,4.8h-21.7l0,0v140h13.4c8.1,0,14.8-6.6,14.7-14.8
		l-0.1-73.7l59.9,72.9c0,0,11.7,15.6,28.9,15.6h6l0,0V4.8H651.6z"/>
	<path class="st0" d="M469.2,22.9C455.3,9.2,437.1,2,416.5,2c-20.5,0-38.7,7.2-52.7,20.9c-14,13.8-21.7,32.3-21.7,52.2
		c0,19.6,7.7,38.1,21.7,51.9c14.3,14,32.5,21.4,52.7,21.4c19.9,0,38.6-7.6,52.5-21.3c14.2-13.6,22-32,22-51.9
		C491.1,55.3,483.3,36.7,469.2,22.9z M416.5,121.1c-25.3,0-45.9-20.6-45.9-45.9c0-25.4,20.6-46,45.9-46c25.4,0,46,20.6,46,46
		C462.5,100.5,441.9,121.1,416.5,121.1z"/>
</g>
</svg>
